# Blender v2.78 (sub 0) OBJ File: ''
# www.blender.org
mtllib Door Inside Window.mtl
o Tamb_Door_Window_Door_Inside_Cube.001
v 0.115600 -0.318565 -0.002389
v 0.115600 0.322358 -0.002389
v -0.113501 0.322358 -0.002389
v -0.113501 -0.318565 -0.002389
v -0.126229 0.106348 -0.002389
v -0.113071 0.106348 -0.002389
v -0.126229 0.290313 -0.002389
v -0.126229 -0.286519 -0.002389
v 0.128328 0.290313 -0.002389
v 0.128328 -0.286519 -0.002389
v 0.115562 -0.318045 -0.022861
v -0.113539 -0.318045 -0.022861
v -0.113539 0.322878 -0.022861
v 0.115562 0.322878 -0.022861
v -0.126266 0.106868 -0.022861
v -0.126266 0.290833 -0.022861
v -0.113109 0.106868 -0.022861
v -0.126266 -0.285999 -0.022861
v 0.128290 0.290833 -0.022861
v 0.128290 -0.285999 -0.022861
vt 0.2473 0.0345
vt 0.2473 0.0345
vt 0.2364 0.0345
vt 0.2364 0.0345
vt 0.2358 0.0530
vt 0.2358 0.0530
vt 0.2358 0.0610
vt 0.2358 0.0610
vt 0.2358 0.0359
vt 0.2358 0.0359
vt 0.2479 0.0610
vt 0.2479 0.0610
vt 0.2479 0.0359
vt 0.2479 0.0359
vt 0.2473 0.0345
vt 0.2364 0.0345
vt 0.2364 0.0345
vt 0.2473 0.0345
vt 0.2358 0.0530
vt 0.2358 0.0610
vt 0.2358 0.0610
vt 0.2358 0.0530
vt 0.2358 0.0359
vt 0.2358 0.0359
vt 0.2479 0.0610
vt 0.2479 0.0359
vt 0.2479 0.0359
vt 0.2479 0.0610
vn -0.0000 -0.0000 1.0000
vn 0.0000 0.0000 -1.0000
usemtl Material.001
s 1
f 1/1/1 2/2/1 3/3/1 4/4/1
f 5/5/1 6/6/1 3/7/1 7/8/1
f 8/9/1 4/10/1 6/6/1 5/5/1
f 9/11/1 2/12/1 1/13/1 10/14/1
f 11/15/2 12/16/2 13/17/2 14/18/2
f 15/19/2 16/20/2 13/21/2 17/22/2
f 18/23/2 15/19/2 17/22/2 12/24/2
f 19/25/2 20/26/2 11/27/2 14/28/2
