# Blender v2.78 (sub 0) OBJ File: ''
# www.blender.org
mtllib Door Between Wagons.mtl
o Cabin_Door_right_Cabin_Door_left_Cube.001
v -0.546040 -0.518809 0.001314
v -0.546040 -0.518809 0.001314
v -0.546039 0.846216 0.001314
v -0.546039 0.846216 0.001314
v -0.025834 -0.518809 -0.017852
v -0.526874 -0.518809 -0.017852
v -0.026326 0.863417 -0.017852
v -0.026331 0.882583 0.001314
v -0.526874 0.878211 0.001314
v -0.526874 0.865572 0.001314
v -0.026331 0.869945 0.001314
v -0.526874 -0.518809 0.020479
v -0.076149 0.713063 0.020479
v -0.026326 0.850778 0.020479
v -0.526873 0.846405 0.020479
v -0.006668 -0.518809 0.001314
v -0.006668 -0.518809 0.001314
v -0.007160 0.850969 0.001314
v -0.007160 0.850969 0.001314
v -0.526874 -0.537975 0.001314
v -0.025827 -0.537975 0.001314
v -0.025834 -0.518809 0.020479
v -0.526874 -0.537975 0.001314
v -0.526873 0.859044 -0.017852
v -0.025827 -0.537975 0.001314
vt 0.1220 0.0065
vt 0.1220 0.0065
vt 0.1220 0.0065
vt 0.1220 0.0065
vt 0.1835 0.0075
vt 0.1546 0.0075
vt 0.1835 0.0998
vt 0.1233 0.1008
vt 0.1521 0.1008
vt 0.1521 0.1002
vt 0.1233 0.1002
vt 0.1530 0.0077
vt 0.1271 0.0905
vt 0.1233 0.0992
vt 0.1521 0.0992
vt 0.1220 0.0065
vt 0.1220 0.0065
vt 0.1220 0.0065
vt 0.1220 0.0065
vt 0.1860 0.0065
vt 0.1847 0.0075
vt 0.1860 0.0075
vt 0.1860 0.0989
vt 0.1847 0.0989
vt 0.1860 0.0999
vt 0.1241 0.0065
vt 0.1229 0.0075
vt 0.1241 0.0075
vt 0.1873 0.0781
vt 0.1860 0.0781
vt 0.1873 0.0791
vt 0.1869 0.0791
vt 0.1860 0.0798
vt 0.1869 0.0805
vt 0.1873 0.0765
vt 0.1860 0.0774
vt 0.1873 0.0781
vt 0.1847 0.0065
vt 0.1847 0.0075
vt 0.1847 0.1008
vt 0.1847 0.0992
vt 0.1910 0.0291
vt 0.1923 0.0291
vt 0.1923 0.0065
vt 0.1910 0.0065
vt 0.1220 0.0992
vt 0.1860 0.0781
vt 0.1860 0.0795
vt 0.1860 0.0795
vt 0.1860 0.0781
vt 0.1220 0.0992
vt 0.1546 0.0065
vt 0.1835 0.0065
vt 0.1835 0.1008
vt 0.1547 0.0996
vt 0.1547 0.1006
vt 0.1534 0.0989
vt 0.1534 0.0075
vt 0.1860 0.0781
vt 0.1860 0.0767
vt 0.1860 0.0767
vt 0.1860 0.0781
vt 0.1534 0.0992
vt 0.1534 0.0992
vt 0.1220 0.0065
vt 0.1220 0.0065
vt 0.1220 0.0065
vt 0.1220 0.0065
vt 0.1591 0.0560
vt 0.1481 0.0562
vn 0.0000 0.0000 1.0000
vn -0.0000 -0.0000 -1.0000
vn -0.5773 -0.5773 0.5774
vn -0.5811 0.5754 0.5755
vn 0.5774 -0.5772 0.5774
vn 0.5734 0.5793 0.5793
vn -0.5773 -0.5773 -0.5774
vn -0.7630 0.4570 -0.4571
vn 0.5774 -0.5772 -0.5774
vn 0.7592 0.4604 -0.4602
vn -0.0000 -0.7071 0.7071
vn -0.7071 0.0000 0.7071
vn -0.0062 0.7071 0.7071
vn 0.7071 0.0003 0.7071
vn -0.2126 -0.3182 -0.9239
vn 0.0746 0.3753 -0.9239
vn 0.7071 0.0003 -0.7071
vn -0.0000 -0.7071 -0.7071
vn -0.0062 0.7071 -0.7071
vn -0.7071 0.0000 -0.7071
vn 0.3182 0.2126 -0.9239
vn -0.3753 -0.0747 -0.9239
usemtl None.000
s 1
f 1/1/1 2/2/1 3/3/1 4/4/1
f 5/5/2 6/6/2 7/7/2
f 8/8/1 9/9/1 10/10/1 11/11/1
f 12/12/1 13/13/1 14/14/1 15/15/1
f 16/16/1 17/17/1 18/18/1 19/19/1
f 20/20/3 12/21/3 2/22/3
f 3/23/4 15/24/4 10/25/4
f 21/26/5 16/27/5 22/28/5
f 11/29/6 14/30/6 19/31/6
f 23/32/7 1/33/7 6/34/7
f 9/35/8 24/36/8 4/37/8
f 25/38/9 5/5/9 17/39/9
f 8/40/10 18/41/10 7/7/10
f 21/42/11 22/43/11 12/44/11 20/45/11
f 2/22/12 12/21/12 15/24/12 3/23/12
f 10/10/13 15/15/13 14/14/13 11/11/13
f 19/46/14 14/14/14 22/28/14 16/27/14
f 25/47/15 17/48/1 16/49/1 21/50/16
f 11/11/1 19/46/1 18/51/1 8/8/1
f 7/7/17 18/41/17 17/39/17 5/5/17
f 23/52/18 6/6/18 5/5/18 25/53/18
f 8/54/19 7/7/19 24/55/19 9/56/19
f 4/57/20 24/55/20 6/6/20 1/58/20
f 20/59/21 2/60/1 1/61/1 23/62/22
f 9/9/1 4/63/1 3/64/1 10/10/1
f 21/65/16 20/66/21 23/67/22 25/68/15
f 6/6/2 24/55/2 7/69/2
f 13/70/1 12/12/1 22/28/1 14/14/1
