# Blender v2.78 (sub 0) OBJ File: ''
# www.blender.org
mtllib exit door window.mtl
o Left_Door_Cube.000
v 0.015021 0.431348 0.185913
v 0.015021 0.469724 0.169150
v 0.015021 0.469724 -0.132565
v 0.015021 0.431348 -0.149326
v 0.015021 -0.259412 -0.149326
v 0.015021 -0.259412 0.185913
v 0.015021 -0.297789 0.169150
v 0.015021 -0.297788 -0.132566
v 0.004204 0.431348 0.185913
v 0.004204 0.469724 0.169150
v 0.004204 0.469724 -0.132565
v 0.004204 0.431348 -0.149326
v 0.004204 -0.259412 -0.149326
v 0.004204 -0.259412 0.185913
v 0.004204 -0.297789 0.169150
v 0.004204 -0.297788 -0.132566
vt 0.2246 0.3225
vt 0.2246 0.3225
vt 0.2246 0.2526
vt 0.2246 0.2526
vt 0.2246 0.3225
vt 0.2246 0.3225
vt 0.2246 0.2526
vt 0.2246 0.2526
vt 0.2246 0.3225
vt 0.2246 0.2526
vt 0.2246 0.2526
vt 0.2246 0.3225
vt 0.2246 0.3225
vt 0.2246 0.3225
vt 0.2246 0.2526
vt 0.2246 0.2526
vn 1.0000 -0.0000 0.0000
vn -1.0000 -0.0000 0.0000
usemtl None
s 1
f 4/1/1 1/2/1 6/3/1 5/4/1
f 4/1/1 3/5/1 2/6/1 1/2/1
f 6/3/1 7/7/1 8/8/1 5/4/1
f 12/9/2 13/10/2 14/11/2 9/12/2
f 12/9/2 9/12/2 10/13/2 11/14/2
f 14/11/2 13/10/2 16/15/2 15/16/2
