# Blender v2.78 (sub 0) OBJ File: 'wagon v2 build.blend'
# www.blender.org
mtllib wagon windows.mtl
o train.001_Cube.001
v 1.215541 0.645592 -1.908630
v 1.215541 1.446031 -1.908630
v 1.215541 1.446031 -1.108191
v 1.215541 0.645592 -1.108191
v -1.213424 1.446031 -4.900724
v -1.213424 1.446031 -4.100285
v -1.213424 0.645592 -4.100285
v -1.213424 0.645592 -4.900724
v -1.165750 0.645592 -4.100285
v -1.165750 1.446031 -4.100285
v -1.165750 1.446031 -4.900724
v -1.165750 0.645592 -4.900724
v 1.167867 1.446031 -4.900724
v 1.167867 1.446031 -4.100285
v 1.167867 0.645592 -4.100285
v 1.167867 0.645592 -4.900724
v 1.215541 0.645592 -4.100285
v 1.215541 1.446031 -4.100285
v 1.215541 1.446031 -4.900724
v 1.215541 0.645592 -4.900724
v 1.215541 0.645592 -3.908758
v 1.215541 1.446031 -3.908757
v 1.215541 1.446031 -3.108319
v 1.215541 0.645592 -3.108319
v 1.167867 0.645592 -3.908758
v 1.167867 0.645592 -3.108319
v 1.167867 1.446031 -3.108319
v 1.167867 1.446031 -3.908757
v -1.165750 0.645592 -3.908758
v -1.165750 1.446031 -3.908757
v -1.165750 1.446031 -3.108319
v -1.165750 0.645592 -3.108319
v -1.213424 0.645592 -3.908758
v -1.213424 0.645592 -3.108319
v -1.213424 1.446031 -3.108319
v -1.213424 1.446031 -3.908757
v -1.213424 1.446031 -2.904645
v -1.213424 1.446031 -2.104206
v -1.213424 0.645592 -2.104206
v -1.213424 0.645592 -2.904645
v -1.165750 0.645592 -2.104206
v -1.165750 1.446031 -2.104206
v -1.165750 1.446031 -2.904645
v -1.165750 0.645592 -2.904645
v 1.167867 1.446031 -2.904645
v 1.167867 1.446031 -2.104206
v 1.167867 0.645592 -2.104206
v 1.167867 0.645592 -2.904645
v 1.215541 0.645592 -2.104206
v 1.215541 1.446031 -2.104206
v 1.215541 1.446031 -2.904645
v 1.215541 0.645592 -2.904645
v 1.167867 0.645592 -1.908630
v 1.167867 0.645592 -1.108191
v 1.167867 1.446031 -1.108191
v 1.167867 1.446031 -1.908630
v 1.215541 0.645592 -0.906902
v 1.215541 1.446031 -0.906902
v 1.215541 1.446031 -0.106463
v 1.215541 0.645592 -0.106463
v 1.167867 0.645592 -0.906902
v 1.167867 0.645592 -0.106463
v 1.167867 1.446031 -0.106463
v 1.167867 1.446031 -0.906902
v 1.215541 0.645592 0.105224
v 1.215541 1.446031 0.105224
v 1.215541 1.446031 0.905663
v 1.215541 0.645592 0.905663
v 1.167867 0.645592 0.105224
v 1.167867 0.645592 0.905663
v 1.167867 1.446031 0.905663
v 1.167867 1.446031 0.105224
v 1.215541 0.645592 1.106952
v 1.215541 1.446031 1.106952
v 1.215541 1.446031 1.907391
v 1.215541 0.645592 1.907391
v 1.167867 0.645592 1.106952
v 1.167867 0.645592 1.907391
v 1.167867 1.446031 1.907391
v 1.167867 1.446031 1.106952
v 1.215541 0.645592 2.112146
v 1.215541 1.446031 2.112146
v 1.215541 1.446030 2.912585
v 1.215541 0.645591 2.912585
v 1.167867 0.645592 2.112146
v 1.167867 0.645591 2.912585
v 1.167867 1.446030 2.912585
v 1.167867 1.446031 2.112146
v 1.215541 0.645591 3.113874
v 1.215541 1.446030 3.113874
v 1.215541 1.446030 3.914313
v 1.215541 0.645591 3.914313
v 1.167867 0.645591 3.113874
v 1.167867 0.645591 3.914313
v 1.167867 1.446030 3.914313
v 1.167867 1.446030 3.113874
v 1.215541 0.645591 4.101737
v 1.215541 1.446030 4.101737
v 1.215541 1.446030 4.902176
v 1.215541 0.645591 4.902176
v 1.167867 0.645591 4.101737
v 1.167867 0.645591 4.902176
v 1.167867 1.446030 4.902176
v 1.167867 1.446030 4.101737
v -1.165750 0.645592 -1.908630
v -1.165750 1.446031 -1.908630
v -1.165750 1.446031 -1.108191
v -1.165750 0.645592 -1.108191
v -1.213424 0.645592 -1.908630
v -1.213424 0.645592 -1.108191
v -1.213424 1.446031 -1.108191
v -1.213424 1.446031 -1.908630
v -1.165750 0.645592 -0.906902
v -1.165750 1.446031 -0.906902
v -1.165750 1.446031 -0.106463
v -1.165750 0.645592 -0.106463
v -1.213424 0.645592 -0.906902
v -1.213424 0.645592 -0.106463
v -1.213424 1.446031 -0.106463
v -1.213424 1.446031 -0.906902
v -1.165750 0.645592 0.105224
v -1.165750 1.446031 0.105224
v -1.165750 1.446031 0.905663
v -1.165750 0.645592 0.905663
v -1.213424 0.645592 0.105224
v -1.213424 0.645592 0.905663
v -1.213424 1.446031 0.905663
v -1.213424 1.446031 0.105224
v -1.165750 0.645592 1.106952
v -1.165750 1.446031 1.106952
v -1.165750 1.446031 1.907391
v -1.165750 0.645592 1.907391
v -1.213424 0.645592 1.106952
v -1.213424 0.645592 1.907391
v -1.213424 1.446031 1.907391
v -1.213424 1.446031 1.106952
v -1.165750 0.645592 2.112146
v -1.165750 1.446031 2.112146
v -1.165750 1.446030 2.912585
v -1.165750 0.645591 2.912585
v -1.213424 0.645592 2.112146
v -1.213424 0.645591 2.912585
v -1.213424 1.446030 2.912585
v -1.213424 1.446031 2.112146
v -1.165750 0.645591 3.113874
v -1.165750 1.446030 3.113874
v -1.165750 1.446030 3.914313
v -1.165750 0.645591 3.914313
v -1.213424 0.645591 3.113874
v -1.213424 0.645591 3.914313
v -1.213424 1.446030 3.914313
v -1.213424 1.446030 3.113874
v -1.165750 0.645591 4.101737
v -1.165750 1.446030 4.101737
v -1.165750 1.446030 4.902176
v -1.165750 0.645591 4.902176
v -1.213424 0.645591 4.101737
v -1.213424 0.645591 4.902176
v -1.213424 1.446030 4.902176
v -1.213424 1.446030 4.101737
vt 0.7580 0.5033
vt 0.7580 0.5033
vt 0.7027 0.5030
vt 0.7027 0.5030
vt 0.7580 0.5033
vt 0.7027 0.5030
vt 0.7027 0.5030
vt 0.7580 0.5033
vt 0.7580 0.5033
vt 0.7580 0.5033
vt 0.7027 0.5030
vt 0.7027 0.5030
vt 0.7580 0.5033
vt 0.7027 0.5030
vt 0.7027 0.5030
vt 0.7580 0.5033
vt 0.7580 0.5033
vt 0.7580 0.5033
vt 0.7027 0.5030
vt 0.7027 0.5030
vt 0.7580 0.5033
vt 0.7580 0.5033
vt 0.7027 0.5030
vt 0.7027 0.5030
vt 0.7580 0.5033
vt 0.7027 0.5030
vt 0.7027 0.5030
vt 0.7580 0.5033
vt 0.7580 0.5033
vt 0.7580 0.5033
vt 0.7027 0.5030
vt 0.7027 0.5030
vt 0.7580 0.5033
vt 0.7027 0.5030
vt 0.7027 0.5030
vt 0.7580 0.5033
vt 0.7580 0.5033
vt 0.7027 0.5030
vt 0.7027 0.5030
vt 0.7580 0.5033
vt 0.7580 0.5033
vt 0.7580 0.5033
vt 0.7027 0.5030
vt 0.7027 0.5030
vt 0.7580 0.5033
vt 0.7027 0.5030
vt 0.7027 0.5030
vt 0.7580 0.5033
vt 0.7580 0.5033
vt 0.7580 0.5033
vt 0.7027 0.5030
vt 0.7027 0.5030
vt 0.7580 0.5033
vt 0.7027 0.5030
vt 0.7027 0.5030
vt 0.7580 0.5033
vt 0.7580 0.5033
vt 0.7580 0.5033
vt 0.7027 0.5030
vt 0.7027 0.5030
vt 0.7580 0.5033
vt 0.7027 0.5030
vt 0.7027 0.5030
vt 0.7580 0.5033
vt 0.7580 0.5033
vt 0.7580 0.5033
vt 0.7027 0.5030
vt 0.7027 0.5030
vt 0.7580 0.5033
vt 0.7027 0.5030
vt 0.7027 0.5030
vt 0.7580 0.5033
vt 0.7580 0.5033
vt 0.7580 0.5033
vt 0.7027 0.5030
vt 0.7027 0.5030
vt 0.7580 0.5033
vt 0.7027 0.5030
vt 0.7027 0.5030
vt 0.7580 0.5033
vt 0.7580 0.5033
vt 0.7580 0.5033
vt 0.7027 0.5030
vt 0.7027 0.5030
vt 0.7580 0.5033
vt 0.7027 0.5030
vt 0.7027 0.5030
vt 0.7580 0.5033
vt 0.7580 0.5033
vt 0.7580 0.5033
vt 0.7027 0.5030
vt 0.7027 0.5030
vt 0.7580 0.5033
vt 0.7027 0.5030
vt 0.7027 0.5030
vt 0.7580 0.5033
vt 0.7580 0.5033
vt 0.7580 0.5033
vt 0.7027 0.5030
vt 0.7027 0.5030
vt 0.7580 0.5033
vt 0.7027 0.5030
vt 0.7027 0.5030
vt 0.7580 0.5033
vt 0.7580 0.5033
vt 0.7580 0.5033
vt 0.7027 0.5030
vt 0.7027 0.5030
vt 0.7580 0.5033
vt 0.7027 0.5030
vt 0.7027 0.5030
vt 0.7580 0.5033
vt 0.7580 0.5033
vt 0.7580 0.5033
vt 0.7027 0.5030
vt 0.7027 0.5030
vt 0.7580 0.5033
vt 0.7027 0.5030
vt 0.7027 0.5030
vt 0.7580 0.5033
vt 0.7580 0.5033
vt 0.7580 0.5033
vt 0.7027 0.5030
vt 0.7027 0.5030
vt 0.7580 0.5033
vt 0.7027 0.5030
vt 0.7027 0.5030
vt 0.7580 0.5033
vt 0.7580 0.5033
vt 0.7580 0.5033
vt 0.7027 0.5030
vt 0.7027 0.5030
vt 0.7580 0.5033
vt 0.7027 0.5030
vt 0.7027 0.5030
vt 0.7580 0.5033
vt 0.7580 0.5033
vt 0.7580 0.5033
vt 0.7027 0.5030
vt 0.7027 0.5030
vt 0.7580 0.5033
vt 0.7027 0.5030
vt 0.7027 0.5030
vt 0.7580 0.5033
vt 0.7580 0.5033
vt 0.7580 0.5033
vt 0.7027 0.5030
vt 0.7027 0.5030
vt 0.7580 0.5033
vt 0.7027 0.5030
vt 0.7027 0.5030
vt 0.7580 0.5033
vt 0.7580 0.5033
vt 0.7580 0.5033
vt 0.7027 0.5030
vt 0.7027 0.5030
vt 0.7580 0.5033
vt 0.7027 0.5030
vt 0.7027 0.5030
vt 0.7580 0.5033
vn 1.0000 0.0000 0.0000
vn -1.0000 0.0000 0.0000
usemtl Material.001
s 1
f 1/1/1 2/2/1 3/3/1 4/4/1
f 8/5/2 7/6/2 6/7/2 5/8/2
f 12/9/1 11/10/1 10/11/1 9/12/1
f 16/13/2 15/14/2 14/15/2 13/16/2
f 20/17/1 19/18/1 18/19/1 17/20/1
f 21/21/1 22/22/1 23/23/1 24/24/1
f 25/25/2 26/26/2 27/27/2 28/28/2
f 29/29/1 30/30/1 31/31/1 32/32/1
f 33/33/2 34/34/2 35/35/2 36/36/2
f 40/37/2 39/38/2 38/39/2 37/40/2
f 44/41/1 43/42/1 42/43/1 41/44/1
f 48/45/2 47/46/2 46/47/2 45/48/2
f 52/49/1 51/50/1 50/51/1 49/52/1
f 53/53/2 54/54/2 55/55/2 56/56/2
f 57/57/1 58/58/1 59/59/1 60/60/1
f 61/61/2 62/62/2 63/63/2 64/64/2
f 65/65/1 66/66/1 67/67/1 68/68/1
f 69/69/2 70/70/2 71/71/2 72/72/2
f 73/73/1 74/74/1 75/75/1 76/76/1
f 77/77/2 78/78/2 79/79/2 80/80/2
f 81/81/1 82/82/1 83/83/1 84/84/1
f 85/85/2 86/86/2 87/87/2 88/88/2
f 89/89/1 90/90/1 91/91/1 92/92/1
f 93/93/2 94/94/2 95/95/2 96/96/2
f 97/97/1 98/98/1 99/99/1 100/100/1
f 101/101/2 102/102/2 103/103/2 104/104/2
f 105/105/1 106/106/1 107/107/1 108/108/1
f 109/109/2 110/110/2 111/111/2 112/112/2
f 113/113/1 114/114/1 115/115/1 116/116/1
f 117/117/2 118/118/2 119/119/2 120/120/2
f 121/121/1 122/122/1 123/123/1 124/124/1
f 125/125/2 126/126/2 127/127/2 128/128/2
f 129/129/1 130/130/1 131/131/1 132/132/1
f 133/133/2 134/134/2 135/135/2 136/136/2
f 137/137/1 138/138/1 139/139/1 140/140/1
f 141/141/2 142/142/2 143/143/2 144/144/2
f 145/145/1 146/146/1 147/147/1 148/148/1
f 149/149/2 150/150/2 151/151/2 152/152/2
f 153/153/1 154/154/1 155/155/1 156/156/1
f 157/157/2 158/158/2 159/159/2 160/160/2
