# Blender v2.78 (sub 0) OBJ File: 'wagon head 2.blend'
# www.blender.org
mtllib coridor door window.mtl
o Cube_Cube.019
v 0.166482 -0.092434 0.012265
v 0.166482 -0.092434 -0.010913
v 0.148749 -0.123937 0.012265
v 0.148749 -0.123937 -0.010913
v -0.170443 -0.123937 -0.010913
v -0.169434 -0.123937 0.012361
v 0.148749 0.117315 0.012265
v 0.148749 0.117315 -0.010913
v 0.166482 0.085812 0.012265
v 0.166482 0.052980 -0.010913
v 0.166482 0.085812 -0.010913
v -0.170443 0.117315 0.012265
v -0.170443 0.117315 -0.010913
v -0.186662 -0.095122 0.012265
v -0.186662 -0.095122 -0.010913
v -0.186662 0.088500 -0.010913
v -0.186662 0.088500 0.012265
vt 0.1145 0.0524
vt 0.1145 0.0540
vt 0.1170 0.0540
vt 0.1170 0.0524
vt 0.1145 0.0540
vt 0.1145 0.0765
vt 0.1170 0.0765
vt 0.1170 0.0540
vt 0.1170 0.0081
vt 0.1170 0.0065
vt 0.1145 0.0065
vt 0.1145 0.0081
vt 0.1120 0.0540
vt 0.1120 0.0765
vt 0.1145 0.0765
vt 0.1145 0.0540
vt 0.1170 0.0097
vt 0.1145 0.0540
vt 0.1145 0.0765
vt 0.1145 0.0080
vt 0.1145 0.0065
vt 0.1120 0.0065
vt 0.1120 0.0080
vt 0.1120 0.0080
vt 0.1145 0.0080
vt 0.1120 0.0526
vt 0.1145 0.0526
vt 0.1145 0.0765
vt 0.1145 0.0540
vt 0.1145 0.0540
vt 0.1145 0.0765
vt 0.1145 0.0765
vt 0.1145 0.0540
vt 0.1145 0.0765
vt 0.1145 0.0765
vt 0.1145 0.0540
vn 0.8714 -0.4905 0.0000
vn 0.0000 -1.0000 0.0000
vn 0.8714 0.4905 0.0000
vn 0.0000 1.0000 0.0000
vn 1.0000 0.0000 0.0000
vn 0.0000 0.0000 -1.0000
vn -0.8647 -0.5019 0.0188
vn -1.0000 0.0000 0.0000
vn -0.8714 0.4905 0.0000
vn 0.0001 0.0016 1.0000
vn -0.0000 0.0000 1.0000
usemtl None
s off
f 1/1/1 3/2/1 4/3/1 2/4/1
f 5/5/2 4/6/2 3/7/2 6/8/2
f 11/9/3 8/10/3 7/11/3 9/12/3
f 12/13/4 7/14/4 8/15/4 13/16/4
f 2/4/5 10/17/5 11/9/5 9/12/5 1/1/5
f 15/18/6 2/19/6 4/6/6 5/5/6
f 15/20/7 5/21/7 6/22/7 14/23/7
f 15/20/8 14/23/8 17/24/8 16/25/8
f 17/26/9 12/13/9 13/16/9 16/27/9
f 13/16/6 8/15/6 11/28/6 16/29/6
f 16/29/6 11/28/6 2/19/6 15/18/6
f 1/30/10 14/31/10 6/32/10 3/2/10
f 7/33/11 12/34/11 17/35/11 9/36/11
f 9/36/11 17/35/11 14/31/11 1/30/11
