# Blender v2.78 (sub 0) OBJ File: 'wagon head 2.blend'
# www.blender.org
mtllib cabin door right.mtl
o Cabin_Door_right_Cube.011
v 1.178957 0.180642 -4.416709
v 1.178957 0.199808 -4.397543
v 1.159791 0.199808 -4.416709
v 1.178957 1.514990 -4.397543
v 1.178957 1.534346 -4.416708
v 1.159791 1.515179 -4.416709
v 1.178957 0.180642 -4.857232
v 1.159791 0.199808 -4.857225
v 1.178957 0.199808 -4.876391
v 1.178957 1.538719 -4.856727
v 1.178957 1.519743 -4.875899
v 1.159791 1.519552 -4.856733
v 1.178957 0.180642 -4.416709
v 1.198123 0.199808 -4.416709
v 1.178957 0.199808 -4.397543
v 1.178957 1.546985 -4.416708
v 1.178957 1.514990 -4.397543
v 1.198123 1.527818 -4.416709
v 1.178957 0.180642 -4.857232
v 1.178957 0.199808 -4.876391
v 1.198123 0.199808 -4.857225
v 1.178957 1.551357 -4.856727
v 1.198123 1.532191 -4.856733
v 1.178957 1.519743 -4.875899
v 1.198123 0.831046 -4.800184
v 1.159791 0.831046 -4.800184
v 1.198123 0.800447 -4.784430
v 1.159791 0.800447 -4.784430
v 1.159791 0.800447 -4.500856
v 1.198123 0.800447 -4.500856
v 1.159791 0.831046 -4.485102
v 1.198123 0.831046 -4.485102
v 1.198123 1.412437 -4.784430
v 1.159791 1.412437 -4.784430
v 1.198123 1.381837 -4.800184
v 1.159791 1.349948 -4.800184
v 1.159791 1.381837 -4.800184
v 1.198123 1.381837 -4.485102
v 1.159791 1.381837 -4.485102
v 1.198123 1.412437 -4.500856
v 1.159791 1.412437 -4.500856
vt 0.1220 0.0065
vt 0.1220 0.0065
vt 0.1220 0.0065
vt 0.1220 0.0065
vt 0.1835 0.0075
vt 0.1835 0.0998
vt 0.1798 0.0921
vt 0.1798 0.0560
vt 0.1787 0.0544
vt 0.1602 0.0544
vt 0.1591 0.0560
vt 0.1546 0.0075
vt 0.1233 0.1008
vt 0.1233 0.1002
vt 0.1521 0.1002
vt 0.1521 0.1008
vt 0.1530 0.0077
vt 0.1521 0.0992
vt 0.1233 0.0992
vt 0.1271 0.0905
vt 0.1271 0.0921
vt 0.1281 0.0937
vt 0.1467 0.0939
vt 0.1477 0.0923
vt 0.1481 0.0562
vt 0.1220 0.0065
vt 0.1220 0.0065
vt 0.1220 0.0065
vt 0.1220 0.0065
vt 0.1860 0.0065
vt 0.1860 0.0075
vt 0.1847 0.0075
vt 0.1860 0.0989
vt 0.1860 0.0999
vt 0.1847 0.0989
vt 0.1241 0.0065
vt 0.1241 0.0075
vt 0.1229 0.0075
vt 0.1873 0.0781
vt 0.1873 0.0791
vt 0.1860 0.0781
vt 0.1869 0.0791
vt 0.1869 0.0805
vt 0.1860 0.0798
vt 0.1873 0.0765
vt 0.1873 0.0781
vt 0.1860 0.0774
vt 0.1847 0.0065
vt 0.1847 0.0075
vt 0.1847 0.1008
vt 0.1847 0.0992
vt 0.1910 0.0291
vt 0.1910 0.0065
vt 0.1923 0.0065
vt 0.1923 0.0291
vt 0.1220 0.0992
vt 0.1860 0.0781
vt 0.1860 0.0781
vt 0.1860 0.0795
vt 0.1860 0.0795
vt 0.1220 0.0992
vt 0.1546 0.0065
vt 0.1835 0.0065
vt 0.1835 0.1008
vt 0.1547 0.1006
vt 0.1547 0.0996
vt 0.1534 0.0989
vt 0.1534 0.0075
vt 0.1860 0.0781
vt 0.1860 0.0781
vt 0.1860 0.0767
vt 0.1860 0.0767
vt 0.1534 0.0992
vt 0.1534 0.0992
vt 0.1220 0.0065
vt 0.1220 0.0065
vt 0.1220 0.0065
vt 0.1220 0.0065
vt 0.1885 0.0524
vt 0.1910 0.0524
vt 0.1910 0.0540
vt 0.1885 0.0540
vt 0.1885 0.0540
vt 0.1910 0.0540
vt 0.1910 0.0765
vt 0.1885 0.0765
vt 0.1910 0.0081
vt 0.1885 0.0081
vt 0.1885 0.0065
vt 0.1910 0.0065
vt 0.1860 0.0524
vt 0.1885 0.0524
vt 0.1885 0.0540
vt 0.1860 0.0540
vt 0.1885 0.0081
vt 0.1860 0.0081
vt 0.1860 0.0065
vt 0.1885 0.0065
vt 0.1885 0.0765
vt 0.1860 0.0765
vt 0.1591 0.0921
vt 0.1602 0.0937
vt 0.1787 0.0937
vt 0.1471 0.0546
vt 0.1285 0.0544
vt 0.1275 0.0560
vt 0.1910 0.0097
vn 0.0000 0.0000 1.0000
vn 1.0000 0.0000 0.0000
vn -1.0000 0.0000 0.0000
vn -0.5773 -0.5774 0.5774
vn -0.5755 0.5754 0.5812
vn -0.5774 -0.5772 -0.5774
vn -0.5792 0.5794 -0.5734
vn 0.5773 -0.5774 0.5774
vn 0.4571 0.4570 0.7630
vn 0.5774 -0.5772 -0.5774
vn 0.4602 0.4604 -0.7591
vn -0.7071 -0.7071 0.0000
vn -0.7071 0.0000 0.7071
vn -0.7071 0.7071 0.0070
vn -0.7071 0.0003 -0.7071
vn 0.7071 0.0003 -0.7072
vn 0.7071 -0.7071 0.0000
vn 0.7071 0.7071 0.0070
vn 0.7071 0.0000 0.7071
vn 0.0000 0.4577 0.8891
vn 0.0000 1.0000 0.0000
vn 0.0000 -0.4577 0.8891
vn 0.0000 -0.4577 -0.8891
vn 0.0000 0.4577 -0.8891
vn 0.0000 -1.0000 0.0000
vn 0.0000 0.0000 -1.0000
usemtl None
s off
f 15/1/1 17/2/1 4/3/1 2/4/1
f 21/5/2 23/6/2 35/7/2 25/8/2 27/9/2 30/10/2 32/11/2 14/12/2
f 22/13/3 10/14/3 5/15/3 16/16/3
f 3/17/3 6/18/3 12/19/3 36/20/3 37/21/3 34/22/3 41/23/3 39/24/3 31/25/3
f 9/26/1 11/27/1 24/28/1 20/29/1
f 1/30/4 2/31/4 3/32/4
f 4/33/5 5/34/5 6/35/5
f 7/36/6 8/37/6 9/38/6
f 10/39/7 11/40/7 12/41/7
f 13/42/8 14/43/8 15/44/8
f 16/45/9 17/46/9 18/47/9
f 19/48/10 20/49/10 21/5/10
f 22/50/11 23/6/11 24/51/11
f 7/52/12 1/53/12 3/54/12 8/55/12
f 2/31/13 4/33/13 6/35/13 3/32/13
f 5/15/14 10/14/14 12/19/14 6/18/14
f 11/56/15 9/38/15 8/37/15 12/19/15
f 19/57/1 7/58/1 9/59/1 20/60/1
f 10/14/3 22/13/3 24/61/3 11/56/3
f 23/6/16 21/5/16 20/49/16 24/51/16
f 13/62/17 19/63/17 21/5/17 14/12/17
f 22/64/18 16/65/18 18/66/18 23/6/18
f 17/67/19 15/68/19 14/12/19 18/66/19
f 1/69/1 13/70/1 15/71/1 2/72/1
f 16/16/3 5/15/3 4/73/3 17/74/3
f 7/75/1 19/76/1 13/77/1 1/78/1
f 25/79/20 26/80/20 28/81/20 27/82/20
f 29/83/21 30/84/21 27/85/21 28/86/21
f 37/87/22 35/88/22 33/89/22 34/90/22
f 38/91/23 39/92/23 41/93/23 40/94/23
f 31/95/24 32/96/24 30/97/24 29/98/24
f 40/94/25 41/93/25 34/99/25 33/100/25
f 14/12/2 32/11/2 38/101/2 40/102/2 33/103/2 35/7/2 23/6/2 18/66/2
f 31/25/3 29/104/3 28/105/3 26/106/3 36/20/3 12/19/3 8/37/3 3/17/3
f 32/96/26 31/95/26 39/92/26 38/91/26
f 26/80/1 25/79/1 35/88/1 37/87/1 36/107/1
