# Blender v2.78 (sub 0) OBJ File: 'wagon head 2.blend'
# www.blender.org
mtllib corridor door.mtl
o Corridor_Door_Cube.016
v -0.233809 0.218690 6.991581
v -0.255382 0.238421 6.991581
v -0.233809 0.238421 6.972415
v -0.255382 1.592443 6.991581
v -0.233810 1.612371 6.991581
v -0.233809 1.592638 6.972415
v 0.262043 0.218690 6.991581
v 0.262035 0.238421 6.972415
v 0.283608 0.238421 6.991581
v 0.261474 1.616872 6.991581
v 0.283054 1.597337 6.991581
v 0.261481 1.597140 6.972415
v -0.233809 0.218690 6.991581
v -0.233809 0.238421 7.010746
v -0.255382 0.238421 6.991581
v -0.233810 1.625383 6.991581
v -0.255382 1.592443 6.991581
v -0.233809 1.605650 7.010746
v 0.262043 0.218690 6.991581
v 0.283608 0.238421 6.991581
v 0.262035 0.238421 7.010746
v 0.261474 1.629884 6.991581
v 0.261481 1.610152 7.010746
v 0.283054 1.597337 6.991581
v 0.197830 1.172176 7.010746
v 0.197830 1.172176 6.972415
v 0.180097 1.140673 7.010746
v 0.180097 1.140673 6.972415
v -0.139094 1.140673 6.972415
v -0.139094 1.140673 7.010746
v -0.156827 1.172176 6.972415
v -0.156827 1.172176 7.010746
v 0.180097 1.381925 7.010746
v 0.180097 1.381925 6.972415
v 0.197830 1.350422 7.010746
v 0.197830 1.317591 6.972415
v 0.197830 1.350422 6.972415
v -0.156827 1.350422 7.010746
v -0.156827 1.350422 6.972415
v -0.139094 1.381925 7.010746
v -0.139094 1.381925 6.972415
vt 0.0481 0.0065
vt 0.0481 0.0065
vt 0.0481 0.0065
vt 0.0481 0.0065
vt 0.1095 0.0075
vt 0.1095 0.0998
vt 0.1058 0.0921
vt 0.1058 0.0560
vt 0.1047 0.0544
vt 0.0862 0.0544
vt 0.0851 0.0560
vt 0.0806 0.0075
vt 0.0493 0.1008
vt 0.0493 0.1002
vt 0.0781 0.1002
vt 0.0781 0.1008
vt 0.0790 0.0077
vt 0.0781 0.0992
vt 0.0493 0.0992
vt 0.0531 0.0905
vt 0.0531 0.0921
vt 0.0541 0.0937
vt 0.0727 0.0939
vt 0.0737 0.0923
vt 0.0741 0.0562
vt 0.0481 0.0065
vt 0.0481 0.0065
vt 0.0481 0.0065
vt 0.0481 0.0065
vt 0.1120 0.0065
vt 0.1120 0.0075
vt 0.1108 0.0075
vt 0.1120 0.0989
vt 0.1120 0.0999
vt 0.1108 0.0989
vt 0.0502 0.0065
vt 0.0501 0.0075
vt 0.0489 0.0075
vt 0.1133 0.0781
vt 0.1133 0.0791
vt 0.1120 0.0781
vt 0.1129 0.0791
vt 0.1129 0.0805
vt 0.1120 0.0798
vt 0.1133 0.0765
vt 0.1133 0.0781
vt 0.1120 0.0774
vt 0.1108 0.0065
vt 0.1108 0.0075
vt 0.1108 0.1008
vt 0.1108 0.0992
vt 0.1170 0.0291
vt 0.1170 0.0065
vt 0.1183 0.0065
vt 0.1183 0.0291
vt 0.0481 0.0992
vt 0.1120 0.0781
vt 0.1120 0.0781
vt 0.1120 0.0795
vt 0.1120 0.0795
vt 0.0481 0.0992
vt 0.0806 0.0065
vt 0.1095 0.0065
vt 0.1095 0.1008
vt 0.0807 0.1006
vt 0.0807 0.0996
vt 0.0794 0.0989
vt 0.0794 0.0075
vt 0.1120 0.0781
vt 0.1120 0.0781
vt 0.1120 0.0767
vt 0.1120 0.0767
vt 0.0794 0.0992
vt 0.0794 0.0992
vt 0.0481 0.0065
vt 0.0481 0.0065
vt 0.0481 0.0065
vt 0.0481 0.0065
vt 0.1145 0.0524
vt 0.1170 0.0524
vt 0.1170 0.0540
vt 0.1145 0.0540
vt 0.1145 0.0540
vt 0.1170 0.0540
vt 0.1170 0.0765
vt 0.1145 0.0765
vt 0.1170 0.0081
vt 0.1145 0.0081
vt 0.1145 0.0065
vt 0.1170 0.0065
vt 0.1120 0.0524
vt 0.1145 0.0524
vt 0.1145 0.0540
vt 0.1120 0.0540
vt 0.1145 0.0081
vt 0.1120 0.0081
vt 0.1120 0.0065
vt 0.1145 0.0065
vt 0.1145 0.0765
vt 0.1120 0.0765
vt 0.0852 0.0921
vt 0.0862 0.0937
vt 0.1048 0.0937
vt 0.0731 0.0546
vt 0.0545 0.0544
vt 0.0535 0.0560
vt 0.1170 0.0097
vn 0.0000 0.0000 1.0000
vn -0.0000 0.0000 -1.0000
vn -0.5374 -0.5876 -0.6049
vn -0.5412 0.5859 -0.6032
vn 0.5375 -0.5874 -0.6050
vn 0.5336 0.5894 -0.6066
vn -0.5374 -0.5876 0.6049
vn -0.7286 0.4772 0.4913
vn 0.5375 -0.5874 0.6050
vn 0.7245 0.4804 0.4943
vn 0.0000 -0.6967 -0.7173
vn -0.6642 0.0000 -0.7476
vn -0.0063 0.6967 -0.7173
vn 0.6642 0.0003 -0.7476
vn 0.6642 0.0003 0.7476
vn 0.0000 -0.6967 0.7173
vn -0.0063 0.6967 0.7173
vn -0.6642 0.0000 0.7476
vn 0.0001 0.0000 -1.0000
vn -0.8714 0.4905 0.0000
vn 0.0000 1.0000 0.0000
vn -0.8714 -0.4905 0.0000
vn 0.8714 -0.4905 0.0000
vn 0.8714 0.4905 0.0000
vn 0.0000 -1.0000 0.0000
vn 1.0000 0.0000 0.0000
vn -1.0000 0.0000 0.0000
usemtl None
s off
f 15/1/1 17/2/1 4/3/1 2/4/1
f 21/5/1 23/6/1 35/7/1 25/8/1 27/9/1 30/10/1 32/11/1 14/12/1
f 22/13/2 10/14/2 5/15/2 16/16/2
f 3/17/2 6/18/2 12/19/2 36/20/2 37/21/2 34/22/2 41/23/2 39/24/2 31/25/2
f 9/26/1 11/27/1 24/28/1 20/29/1
f 1/30/3 2/31/3 3/32/3
f 4/33/4 5/34/4 6/35/4
f 7/36/5 8/37/5 9/38/5
f 10/39/6 11/40/6 12/41/6
f 13/42/7 14/43/7 15/44/7
f 16/45/8 17/46/8 18/47/8
f 19/48/9 20/49/9 21/5/9
f 22/50/10 23/6/10 24/51/10
f 7/52/11 1/53/11 3/54/11 8/55/11
f 2/31/12 4/33/12 6/35/12 3/32/12
f 5/15/13 10/14/13 12/19/13 6/18/13
f 11/56/14 9/38/14 8/37/14 12/19/14
f 19/57/1 7/58/1 9/59/1 20/60/1
f 10/14/2 22/13/2 24/61/2 11/56/2
f 23/6/15 21/5/15 20/49/15 24/51/15
f 13/62/16 19/63/16 21/5/16 14/12/16
f 22/64/17 16/65/17 18/66/17 23/6/17
f 17/67/18 15/68/18 14/12/18 18/66/18
f 1/69/1 13/70/1 15/71/1 2/72/1
f 16/16/19 5/15/19 4/73/19 17/74/19
f 7/75/1 19/76/1 13/77/1 1/78/1
f 25/79/20 26/80/20 28/81/20 27/82/20
f 29/83/21 30/84/21 27/85/21 28/86/21
f 37/87/22 35/88/22 33/89/22 34/90/22
f 38/91/23 39/92/23 41/93/23 40/94/23
f 31/95/24 32/96/24 30/97/24 29/98/24
f 40/94/25 41/93/25 34/99/25 33/100/25
f 14/12/1 32/11/1 38/101/1 40/102/1 33/103/1 35/7/1 23/6/1 18/66/1
f 31/25/2 29/104/2 28/105/2 26/106/2 36/20/2 12/19/2 8/37/2 3/17/2
f 32/96/26 31/95/26 39/92/26 38/91/26
f 26/80/27 25/79/27 35/88/27 37/87/27 36/107/27
