# Blender v2.78 (sub 0) OBJ File: 'wagon head 2.blend'
# www.blender.org
mtllib seat double side.mtl
o Seat_Cube.007
v 1.041398 0.379827 4.321803
v 0.308765 0.508348 4.224037
v 1.147947 0.827217 4.203227
v 0.308765 0.827496 4.203535
v 1.150460 0.834308 4.209876
v 0.303813 0.834308 4.209876
v 1.150460 0.837666 4.220953
v 0.303813 0.837666 4.220953
v 1.150460 0.835909 4.232393
v 0.303813 0.835909 4.232393
v 1.150460 0.829707 4.239828
v 0.303813 0.829707 4.239827
v 1.147947 0.509795 4.262385
v 0.303813 0.510701 4.262510
v 1.147947 0.508069 4.223729
v 1.147947 0.390743 4.232260
v 0.309053 0.390743 4.459400
v 1.147947 0.390743 4.459400
v 0.303813 0.397973 4.464582
v 1.150460 0.397973 4.464582
v 0.303813 0.409232 4.466405
v 1.150460 0.409232 4.466405
v 0.303813 0.420491 4.464582
v 1.150460 0.420491 4.464582
v 0.303813 0.427450 4.459813
v 1.150460 0.427450 4.459813
v 0.303813 0.427450 4.232568
v 1.150460 0.427450 4.232568
v 0.308765 0.391023 4.232568
v 0.309053 0.356908 4.459400
v 1.147947 0.356908 4.186875
v 0.309053 0.356908 4.186875
v 0.308765 0.391023 4.186875
v 1.147947 0.356908 4.459400
v 1.147947 0.390743 4.186875
v 0.308765 0.827496 4.186875
v 1.147947 0.827217 4.186875
v 1.150460 0.502279 4.256220
v 0.303813 0.502279 4.256220
v 1.150460 0.498195 4.245390
v 0.303813 0.498195 4.245390
v 1.150460 0.499191 4.233858
v 0.303813 0.499191 4.233858
v 1.117367 0.356908 4.186875
v 1.117367 0.356908 4.459400
v 1.147947 0.181486 4.344051
v 1.147947 0.181486 4.186875
v 1.117367 0.181486 4.344051
v 1.117367 0.181486 4.186875
v 0.308765 0.448217 4.186875
v 1.117367 0.277819 4.354948
v 1.147947 0.277819 4.354948
v 1.117367 0.232200 4.321803
v 1.147947 0.232200 4.321803
v 1.117367 0.232200 4.214545
v 1.147947 0.232200 4.214545
v 1.117367 0.214775 4.268174
v 1.147947 0.214775 4.268174
v 1.117367 0.334208 4.354948
v 1.147947 0.334208 4.354948
v 1.041398 0.356908 4.338455
v 1.041398 0.356908 4.305151
v 1.147947 0.356908 4.338455
v 1.147947 0.379827 4.321803
v 1.117367 0.356908 4.338455
v 1.147947 0.356908 4.305151
v 1.117367 0.356908 4.305151
v 1.041398 0.379827 4.051948
v 0.308765 0.508348 4.149714
v 1.147947 0.827217 4.170524
v 0.308765 0.827496 4.170216
v 1.150460 0.834308 4.163875
v 0.303813 0.834308 4.163875
v 1.150460 0.837666 4.152798
v 0.303813 0.837666 4.152798
v 1.150460 0.835909 4.141357
v 0.303813 0.835909 4.141358
v 1.150460 0.829707 4.133923
v 0.303813 0.829707 4.133924
v 1.147947 0.509795 4.111366
v 0.303813 0.510701 4.111241
v 1.147947 0.508069 4.150022
v 1.147947 0.390743 4.141491
v 0.309053 0.390743 3.914351
v 1.147947 0.390743 3.914351
v 0.303813 0.397973 3.909168
v 1.150460 0.397973 3.909168
v 0.303813 0.409232 3.907346
v 1.150460 0.409232 3.907346
v 0.303813 0.420491 3.909168
v 1.150460 0.420491 3.909168
v 0.303813 0.427450 3.913938
v 1.150460 0.427450 3.913938
v 0.303813 0.427450 4.141183
v 1.150460 0.427450 4.141183
v 0.308765 0.391023 4.141183
v 0.309053 0.356908 3.914351
v 1.147947 0.356908 3.914351
v 1.150460 0.502279 4.117531
v 0.303813 0.502279 4.117531
v 1.150460 0.498195 4.128361
v 0.303813 0.498195 4.128361
v 1.150460 0.499191 4.139893
v 0.303813 0.499191 4.139893
v 1.117367 0.356908 3.914351
v 1.147947 0.181486 4.029699
v 1.117367 0.181486 4.029699
v 1.117367 0.277819 4.018803
v 1.147947 0.277819 4.018803
v 1.117367 0.232200 4.051948
v 1.147947 0.232200 4.051948
v 1.117367 0.232200 4.159205
v 1.147947 0.232200 4.159205
v 1.117367 0.214775 4.105577
v 1.147947 0.214775 4.105577
v 1.117367 0.334208 4.018803
v 1.147947 0.334208 4.018803
v 1.041398 0.356908 4.035296
v 1.041398 0.356908 4.068599
v 1.147947 0.356908 4.035296
v 1.147947 0.379827 4.051948
v 1.117367 0.356908 4.035296
v 1.147947 0.356908 4.068599
v 1.117367 0.356908 4.068599
v 1.148172 0.866942 4.201478
v 1.107281 0.866569 4.201478
v 1.152539 0.865968 4.201478
v 1.153433 0.862946 4.201478
v 1.062998 0.828275 4.201478
v 1.061666 0.825533 4.201478
v 1.153433 0.809064 4.201478
v 1.148172 0.809064 4.201478
v 1.148172 0.864158 4.201478
v 1.107281 0.863826 4.201478
v 1.062998 0.825533 4.201478
v 1.148172 0.866942 4.171367
v 1.107281 0.866569 4.171367
v 1.148172 0.864158 4.171367
v 1.152539 0.865968 4.171367
v 1.153433 0.862946 4.171367
v 1.062998 0.828275 4.171367
v 1.061666 0.825533 4.171367
v 1.148172 0.809064 4.171367
v 1.153433 0.809064 4.171367
v 1.107281 0.863826 4.171367
v 1.062998 0.825533 4.171367
vt 0.7582 0.6446
vt 0.7597 0.6496
vt 0.7567 0.6496
vt 0.7502 0.6446
vt 0.7504 0.6372
vt 0.7546 0.6372
vt 0.7546 0.6446
vt 0.7567 0.6372
vt 0.7567 0.6446
vt 0.7100 0.6729
vt 0.6895 0.6729
vt 0.6895 0.6726
vt 0.7100 0.6726
vt 0.6895 0.6712
vt 0.7100 0.6712
vt 0.6895 0.6017
vt 0.7100 0.6015
vt 0.6623 0.6702
vt 0.6644 0.6007
vt 0.6651 0.5993
vt 0.6661 0.5989
vt 0.6671 0.5997
vt 0.6676 0.6011
vt 0.6658 0.6707
vt 0.6649 0.6727
vt 0.6639 0.6729
vt 0.6629 0.6721
vt 0.6393 0.7403
vt 0.6373 0.6705
vt 0.6378 0.6689
vt 0.6388 0.6680
vt 0.6398 0.6682
vt 0.6408 0.6701
vt 0.6426 0.7397
vt 0.6420 0.7413
vt 0.6410 0.7420
vt 0.6400 0.7416
vt 0.7305 0.6069
vt 0.7101 0.6069
vt 0.7100 0.6054
vt 0.7306 0.6054
vt 0.7100 0.6029
vt 0.7306 0.6029
vt 0.7100 0.6004
vt 0.7306 0.6004
vt 0.7100 0.5989
vt 0.7306 0.5989
vt 0.7510 0.6459
vt 0.7510 0.6533
vt 0.7306 0.6533
vt 0.7306 0.6459
vt 0.6400 0.6526
vt 0.6196 0.6526
vt 0.6191 0.6510
vt 0.6190 0.6486
vt 0.6191 0.6461
vt 0.6196 0.6446
vt 0.6400 0.6446
vt 0.6446 0.6884
vt 0.6650 0.6884
vt 0.6650 0.6963
vt 0.6447 0.6964
vt 0.6442 0.6948
vt 0.6440 0.6923
vt 0.6442 0.6899
vt 0.6447 0.7037
vt 0.6691 0.7037
vt 0.6691 0.6963
vt 0.6440 0.6372
vt 0.6196 0.6372
vt 0.6305 0.6372
vt 0.6320 0.6422
vt 0.6334 0.6372
vt 0.7101 0.6143
vt 0.7305 0.6143
vt 0.7108 0.6143
vt 0.7306 0.6372
vt 0.7502 0.6372
vt 0.7502 0.6410
vt 0.7484 0.6410
vt 0.7484 0.6420
vt 0.7502 0.6420
vt 0.7502 0.6459
vt 0.7306 0.6459
vt 0.6440 0.6446
vt 0.7602 0.6063
vt 0.7602 0.5989
vt 0.7617 0.5989
vt 0.7617 0.6063
vt 0.6691 0.5990
vt 0.6895 0.5989
vt 0.6895 0.6245
vt 0.6895 0.6941
vt 0.6691 0.6941
vt 0.6691 0.6246
vt 0.6440 0.7397
vt 0.6895 0.5998
vt 0.7100 0.5998
vt 0.6895 0.5989
vt 0.7100 0.5989
vt 0.7613 0.6063
vt 0.7613 0.6138
vt 0.7602 0.6138
vt 0.7602 0.6063
vt 0.7620 0.6372
vt 0.7620 0.6446
vt 0.7567 0.6446
vt 0.7569 0.6372
vt 0.6691 0.6838
vt 0.6416 0.6100
vt 0.6368 0.6062
vt 0.6320 0.6100
vt 0.6290 0.6199
vt 0.6290 0.6322
vt 0.6300 0.5989
vt 0.6440 0.5989
vt 0.7559 0.6496
vt 0.7559 0.6446
vt 0.7567 0.6446
vt 0.7567 0.6496
vt 0.7108 0.6526
vt 0.7101 0.6526
vt 0.7550 0.6372
vt 0.7442 0.6372
vt 0.7457 0.6322
vt 0.7457 0.6199
vt 0.7427 0.6100
vt 0.7379 0.6062
vt 0.7331 0.6100
vt 0.7412 0.6372
vt 0.7306 0.6372
vt 0.7306 0.5989
vt 0.7447 0.5989
vt 0.6691 0.6011
vt 0.7595 0.6309
vt 0.7602 0.6309
vt 0.7602 0.6349
vt 0.7595 0.6349
vt 0.7576 0.6349
vt 0.7550 0.6349
vt 0.7550 0.6299
vt 0.7569 0.6299
vt 0.7569 0.6027
vt 0.7576 0.6027
vt 0.7576 0.6299
vt 0.7576 0.6038
vt 0.7576 0.5989
vt 0.7602 0.5989
vt 0.7602 0.6038
vt 0.7602 0.6087
vt 0.7595 0.6087
vt 0.7595 0.6038
vt 0.7595 0.6209
vt 0.7602 0.6209
vt 0.7569 0.5989
vt 0.7576 0.5989
vt 0.7582 0.6446
vt 0.7567 0.6496
vt 0.7597 0.6496
vt 0.7502 0.6446
vt 0.7546 0.6446
vt 0.7546 0.6372
vt 0.7504 0.6372
vt 0.7567 0.6446
vt 0.7567 0.6372
vt 0.7100 0.6729
vt 0.7100 0.6726
vt 0.6895 0.6726
vt 0.6895 0.6729
vt 0.7100 0.6712
vt 0.6895 0.6712
vt 0.7100 0.6015
vt 0.6895 0.6017
vt 0.6623 0.6702
vt 0.6629 0.6721
vt 0.6639 0.6729
vt 0.6649 0.6727
vt 0.6658 0.6707
vt 0.6676 0.6011
vt 0.6671 0.5997
vt 0.6661 0.5989
vt 0.6651 0.5993
vt 0.6644 0.6007
vt 0.6393 0.7403
vt 0.6400 0.7416
vt 0.6410 0.7420
vt 0.6420 0.7413
vt 0.6426 0.7397
vt 0.6408 0.6701
vt 0.6398 0.6682
vt 0.6388 0.6680
vt 0.6378 0.6689
vt 0.6373 0.6705
vt 0.7305 0.6069
vt 0.7306 0.6054
vt 0.7100 0.6054
vt 0.7101 0.6069
vt 0.7306 0.6029
vt 0.7100 0.6029
vt 0.7306 0.6004
vt 0.7100 0.6004
vt 0.7306 0.5989
vt 0.7100 0.5989
vt 0.7510 0.6459
vt 0.7306 0.6459
vt 0.7306 0.6533
vt 0.7510 0.6533
vt 0.6400 0.6526
vt 0.6400 0.6446
vt 0.6196 0.6446
vt 0.6191 0.6461
vt 0.6190 0.6486
vt 0.6191 0.6510
vt 0.6196 0.6526
vt 0.6446 0.6884
vt 0.6442 0.6899
vt 0.6440 0.6923
vt 0.6442 0.6948
vt 0.6447 0.6964
vt 0.6650 0.6963
vt 0.6650 0.6884
vt 0.6447 0.7037
vt 0.6334 0.6372
vt 0.6320 0.6422
vt 0.6305 0.6372
vt 0.6196 0.6372
vt 0.7101 0.6143
vt 0.7108 0.6143
vt 0.7305 0.6143
vt 0.7306 0.6459
vt 0.7502 0.6459
vt 0.7502 0.6420
vt 0.7484 0.6420
vt 0.7484 0.6410
vt 0.7502 0.6410
vt 0.7602 0.6063
vt 0.7602 0.5989
vt 0.6691 0.5990
vt 0.6691 0.6246
vt 0.6691 0.6941
vt 0.6895 0.6941
vt 0.6895 0.6245
vt 0.6895 0.5989
vt 0.7100 0.5998
vt 0.6895 0.5998
vt 0.7100 0.5989
vt 0.6895 0.5989
vt 0.7613 0.6063
vt 0.7602 0.6063
vt 0.7602 0.6138
vt 0.7613 0.6138
vt 0.7620 0.6372
vt 0.7569 0.6372
vt 0.7567 0.6446
vt 0.7620 0.6446
vt 0.6300 0.5989
vt 0.6290 0.6322
vt 0.6290 0.6199
vt 0.6320 0.6100
vt 0.6368 0.6062
vt 0.6416 0.6100
vt 0.7559 0.6496
vt 0.7567 0.6496
vt 0.7101 0.6526
vt 0.7108 0.6526
vt 0.7550 0.6372
vt 0.7447 0.5989
vt 0.7412 0.6372
vt 0.7331 0.6100
vt 0.7379 0.6062
vt 0.7427 0.6100
vt 0.7457 0.6199
vt 0.7457 0.6322
vt 0.7442 0.6372
vt 0.7595 0.6309
vt 0.7595 0.6349
vt 0.7602 0.6349
vt 0.7602 0.6309
vt 0.7576 0.6349
vt 0.7576 0.6299
vt 0.7576 0.6027
vt 0.7569 0.6027
vt 0.7569 0.6299
vt 0.7550 0.6299
vt 0.7550 0.6349
vt 0.7576 0.6038
vt 0.7595 0.6038
vt 0.7595 0.6087
vt 0.7602 0.6087
vt 0.7602 0.6038
vt 0.7602 0.5989
vt 0.7576 0.5989
vt 0.7595 0.6209
vt 0.7602 0.6209
vt 0.7569 0.5989
vt 0.7576 0.5989
vt 0.6267 0.7215
vt 0.6291 0.7215
vt 0.6291 0.7240
vt 0.6267 0.7240
vt 0.6174 0.7308
vt 0.6174 0.7307
vt 0.6198 0.7307
vt 0.6198 0.7308
vt 0.6267 0.7298
vt 0.6291 0.7298
vt 0.6291 0.7301
vt 0.6267 0.7301
vt 0.6174 0.7348
vt 0.6174 0.7344
vt 0.6198 0.7344
vt 0.6198 0.7348
vt 0.6291 0.7213
vt 0.6267 0.7213
vt 0.6222 0.7307
vt 0.6222 0.7351
vt 0.6198 0.7351
vt 0.6198 0.7307
vt 0.6267 0.7304
vt 0.6243 0.7304
vt 0.6243 0.7273
vt 0.6267 0.7273
vt 0.6243 0.7214
vt 0.6267 0.7214
vt 0.6243 0.7213
vt 0.6267 0.7213
vt 0.6200 0.7291
vt 0.6200 0.7297
vt 0.6198 0.7295
vt 0.6198 0.7291
vt 0.6243 0.7302
vt 0.6242 0.7307
vt 0.6204 0.7250
vt 0.6206 0.7251
vt 0.6240 0.7214
vt 0.6155 0.7228
vt 0.6153 0.7229
vt 0.6153 0.7224
vt 0.6155 0.7223
vt 0.6198 0.7218
vt 0.6197 0.7213
vt 0.6161 0.7269
vt 0.6159 0.7269
vt 0.6195 0.7306
vt 0.6197 0.7306
vt 0.6198 0.7307
vn 1.0000 0.0000 0.0000
vn -0.0000 0.6827 -0.7307
vn -0.0000 0.9570 -0.2901
vn -0.0000 0.9884 0.1518
vn -0.0000 0.7679 0.6406
vn 0.0001 0.0706 0.9975
vn -0.9917 -0.0087 -0.1285
vn 0.9995 -0.0028 -0.0326
vn 0.0000 -0.5826 0.8127
vn 0.0000 -0.1598 0.9872
vn 0.0000 0.1598 0.9872
vn -0.0000 0.5654 0.8248
vn -0.0000 1.0000 0.0000
vn 0.9977 -0.0677 -0.0043
vn -0.9906 -0.1368 -0.0085
vn -1.0000 -0.0046 0.0006
vn -1.0000 -0.0085 0.0000
vn 0.0000 0.0000 1.0000
vn 0.0000 -1.0000 0.0000
vn 0.0003 1.0000 0.0000
vn 0.0004 0.0664 0.9978
vn -0.0003 -0.6158 0.7879
vn -0.0000 -0.9357 0.3529
vn -0.0000 -0.9963 -0.0861
vn -0.0002 -0.7418 -0.6706
vn -1.0000 0.0000 0.0000
vn 0.0000 -0.5494 0.8355
vn 0.0000 0.9511 -0.3090
vn 0.0000 -0.5878 0.8090
vn 0.0000 -0.5878 -0.8090
vn 0.0000 0.5878 -0.8090
vn 0.0000 0.0000 -1.0000
vn 0.0000 0.9511 0.3090
vn -0.0000 0.6827 0.7307
vn -0.0000 0.9570 0.2901
vn -0.0000 0.9884 -0.1518
vn -0.0000 0.7679 -0.6406
vn 0.0001 0.0706 -0.9975
vn -0.9917 -0.0087 0.1285
vn 0.9995 -0.0028 0.0326
vn 0.0000 -0.5827 -0.8127
vn 0.0000 -0.1597 -0.9872
vn 0.0000 0.1597 -0.9872
vn 0.0000 0.5654 -0.8248
vn 0.9977 -0.0677 0.0043
vn -0.9906 -0.1368 0.0085
vn -1.0000 -0.0046 -0.0006
vn 0.0004 0.0664 -0.9978
vn -0.0003 -0.6158 -0.7879
vn -0.0000 -0.9357 -0.3529
vn -0.0000 -0.9963 0.0861
vn -0.0002 -0.7418 0.6706
vn 0.0000 -0.5494 -0.8356
vn 0.0000 0.5878 0.8090
vn 0.0767 0.7270 0.6823
vn 0.0768 0.7270 -0.6823
vn -0.2723 0.7211 -0.6371
vn -0.2723 0.7211 0.6371
vn 0.7291 0.1055 -0.6762
vn 0.5416 0.5797 -0.6088
vn 0.5416 0.5797 0.6088
vn 0.7291 0.1055 0.6762
vn -0.5926 0.4552 0.6644
vn -0.5926 0.4552 -0.6644
vn -0.7038 -0.4406 -0.5572
vn -0.7038 -0.4406 0.5572
vn -0.5773 -0.5773 -0.5773
vn 0.5773 -0.5773 -0.5773
vn 0.5773 -0.5773 0.5773
vn -0.5773 -0.5773 0.5773
vn -0.2989 -0.3013 0.9055
vn -0.2988 -0.3013 -0.9055
vn 0.2146 -0.5692 0.7936
vn 0.2146 -0.5692 -0.7936
vn 0.2692 -0.7229 0.6363
vn 0.2692 -0.7229 -0.6363
usemtl None
s off
f 1/1/1 61/2/1 62/3/1
f 3/4/2 4/5/2 6/6/2 5/7/2
f 5/7/3 6/6/3 8/8/3 7/9/3
f 7/10/4 8/11/4 10/12/4 9/13/4
f 9/13/5 10/12/5 12/14/5 11/15/5
f 11/15/6 12/14/6 14/16/6 13/17/6
f 14/18/7 12/19/7 10/20/7 8/21/7 6/22/7 4/23/7 2/24/7 43/25/7 41/26/7 39/27/7
f 11/28/8 13/29/8 38/30/8 40/31/8 42/32/8 15/33/8 3/34/8 5/35/8 7/36/8 9/37/8
f 17/38/9 18/39/9 20/40/9 19/41/9
f 19/41/10 20/40/10 22/42/10 21/43/10
f 21/43/11 22/42/11 24/44/11 23/45/11
f 23/45/12 24/44/12 26/46/12 25/47/12
f 25/48/13 26/49/13 28/50/13 27/51/13
f 28/52/14 26/53/14 24/54/14 22/55/14 20/56/14 18/57/14 16/58/14
f 25/59/15 27/60/15 29/61/15 17/62/15 19/63/15 21/64/15 23/65/15
f 30/66/16 17/62/16 29/61/16 32/67/16
f 32/67/17 29/61/17 33/68/17
f 31/69/1 16/58/1 18/57/1 34/70/1 63/71/1 64/72/1 66/73/1
f 34/74/18 18/39/18 17/38/18 30/75/18 45/76/18
f 32/77/19 44/78/19 67/79/19 62/80/19 61/81/19 65/82/19 45/83/19 30/84/19
f 16/58/1 31/69/1 35/85/1
f 4/86/20 3/87/20 37/88/20 36/89/20
f 29/90/21 16/91/21 15/92/21 3/93/21 4/94/21 2/95/21
f 16/58/1 35/85/1 37/96/1 3/34/1 15/33/1
f 13/17/22 14/16/22 39/97/22 38/98/22
f 38/98/23 39/97/23 41/99/23 40/100/23
f 40/101/24 41/102/24 43/103/24 42/104/24
f 42/105/25 43/106/25 2/107/25 15/108/25
f 33/68/26 29/61/26 2/24/26 50/109/26
f 31/69/1 66/73/1 56/110/1 58/111/1 54/112/1 52/113/1 60/114/1 63/71/1 34/70/1 46/115/1 47/116/1
f 48/117/19 49/118/19 47/119/19 46/120/19
f 34/74/27 45/76/27 48/121/27 46/122/27
f 45/123/26 65/124/26 59/125/26 51/126/26 53/127/26 57/128/26 55/129/26 67/130/26 44/131/26 49/132/26 48/133/26
f 2/24/26 4/23/26 36/134/26 50/109/26
f 53/135/28 54/136/28 58/137/28 57/138/28
f 64/139/29 1/140/29 62/141/29 67/142/29 55/143/29 56/144/29 66/145/29
f 61/146/30 1/147/30 64/148/30 63/149/30 60/150/30 59/151/30 65/152/30
f 51/153/31 52/154/31 54/136/31 53/135/31
f 59/151/32 60/150/32 52/154/32 51/153/32
f 57/155/33 58/156/33 56/144/33 55/143/33
f 68/157/1 119/158/1 118/159/1
f 70/160/34 72/161/34 73/162/34 71/163/34
f 72/161/35 74/164/35 75/165/35 73/162/35
f 74/166/36 76/167/36 77/168/36 75/169/36
f 76/167/37 78/170/37 79/171/37 77/168/37
f 78/170/38 80/172/38 81/173/38 79/171/38
f 81/174/39 100/175/39 102/176/39 104/177/39 69/178/39 71/179/39 73/180/39 75/181/39 77/182/39 79/183/39
f 78/184/40 76/185/40 74/186/40 72/187/40 70/188/40 82/189/40 103/190/40 101/191/40 99/192/40 80/193/40
f 84/194/41 86/195/41 87/196/41 85/197/41
f 86/195/42 88/198/42 89/199/42 87/196/42
f 88/198/43 90/200/43 91/201/43 89/199/43
f 90/200/44 92/202/44 93/203/44 91/201/44
f 92/204/13 94/205/13 95/206/13 93/207/13
f 95/208/45 83/209/45 85/210/45 87/211/45 89/212/45 91/213/45 93/214/45
f 92/215/46 90/216/46 88/217/46 86/218/46 84/219/46 96/220/46 94/221/46
f 97/222/47 32/67/47 96/220/47 84/219/47
f 32/67/17 33/68/17 96/220/17
f 31/69/1 123/223/1 121/224/1 120/225/1 98/226/1 85/210/1 83/209/1
f 98/227/32 105/228/32 97/229/32 84/194/32 85/197/32
f 32/77/19 97/230/19 105/231/19 122/232/19 118/233/19 119/234/19 124/235/19 44/78/19
f 83/209/1 35/85/1 31/69/1
f 71/236/20 36/89/20 37/88/20 70/237/20
f 96/238/48 69/239/48 71/240/48 70/241/48 82/242/48 83/243/48
f 83/209/1 82/189/1 70/188/1 37/96/1 35/85/1
f 80/172/49 99/244/49 100/245/49 81/173/49
f 99/244/50 101/246/50 102/247/50 100/245/50
f 101/248/51 103/249/51 104/250/51 102/251/51
f 103/252/52 82/253/52 69/254/52 104/255/52
f 33/68/26 50/109/26 69/178/26 96/220/26
f 31/69/1 47/116/1 106/256/1 98/226/1 120/225/1 117/257/1 109/258/1 111/259/1 115/260/1 113/261/1 123/223/1
f 107/262/19 106/263/19 47/119/19 49/118/19
f 98/227/53 106/264/53 107/265/53 105/228/53
f 105/266/26 107/267/26 49/132/26 44/131/26 124/268/26 112/269/26 114/270/26 110/271/26 108/272/26 116/273/26 122/274/26
f 69/178/26 50/109/26 36/134/26 71/179/26
f 110/275/33 114/276/33 115/277/33 111/278/33
f 121/279/30 123/280/30 113/281/30 112/282/30 124/283/30 119/284/30 68/285/30
f 118/286/29 122/287/29 116/288/29 117/289/29 120/290/29 121/291/29 68/292/29
f 108/293/54 110/275/54 111/278/54 109/294/54
f 116/288/18 108/293/18 109/294/18 117/289/18
f 114/295/28 112/282/28 113/281/28 115/296/28
s 1
f 125/297/55 136/298/56 137/299/57 126/300/58
f 140/301/59 139/302/60 127/303/61 128/304/62
f 129/305/63 141/306/64 142/307/65 130/308/66
f 143/309/67 144/310/68 131/311/69 132/312/70
f 139/313/60 136/298/56 125/297/55 127/314/61
f 144/310/68 140/301/59 128/304/62 131/311/69
f 132/315/70 133/316/71 138/317/72 143/318/67
f 126/300/58 137/299/57 141/306/64 129/305/63
f 138/319/72 133/320/71 134/321/73 145/322/74
f 145/322/74 134/321/73 135/323/75 146/324/76
f 146/324/76 135/323/75 130/325/66 142/326/65
f 133/327/71 128/328/62 127/329/61 125/330/55
f 132/331/70 131/332/69 128/328/62 133/327/71
f 125/330/55 126/333/58 134/334/73 133/327/71
f 129/335/63 130/325/66 135/323/75
f 126/333/58 129/335/63 135/323/75 134/334/73
f 138/336/72 136/337/56 139/338/60 140/339/59
f 143/340/67 138/336/72 140/339/59 144/341/68
f 136/337/56 138/336/72 145/342/74 137/343/57
f 141/344/64 146/345/76 142/346/65
f 137/343/57 145/342/74 146/345/76 141/344/64
